{"accessors" : [{"bufferView" : 0, "byteOffset" : 0, "componentType" : 5125, "count" : 924489, "type" : "SCALAR", "max" : [924488], "min" : [0]}, {"bufferView" : 1, "byteOffset" : 0, "componentType" : 5126, "count" : 924489, "type" : "VEC3", "max" : [13.042494773864746, 6.931695461273193, 26.4218692779541], "min" : [-13.151713371276855, -25.018770217895508, -25.788572311401367]}, {"bufferView" : 1, "byteOffset" : 12, "componentType" : 5126, "count" : 924489, "type" : "VEC3", "max" : [1.0000022649765015, 0.9999478459358215, 1.0000033378601074], "min" : [-0.9999522566795349, -1.000001311302185, -0.9999020099639893]}], "asset" : {"generator" : "Aspose.3D 21.1", "version" : "2.0"}, "buffers" : [{"uri" : "buffer.bin", "byteLength" : 25885700}], "bufferViews" : [{"buffer" : 0, "byteOffset" : 0, "byteLength" : 3697956, "target" : 34963}, {"buffer" : 0, "byteOffset" : 3697960, "byteLength" : 22187736, "byteStride" : 24, "target" : 34962}], "meshes" : [{"primitives" : [{"attributes" : {"POSITION" : 1, "NORMAL" : 2}, "indices" : 0, "mode" : 4}]}], "nodes" : [{"mesh" : 0, "name" : ""}], "scene" : 0, "scenes" : [{"nodes" : [0]}]}